# xmcd
#
# Track frame offsets:
#	150
#	16481
#	33006
#	52297
#	65846
#	90852
#	105391
#	122189
#	138814
#	156291
#	178567
#	189739
#	207307
#
# Disc length: 2979 seconds
#
# Revision: 1
# Processed by: cddbd v1.4PL0 Copyright (c) Steve Scherf et al.
# Submitted via: audiograbber 1.80
#
DISCID=b00ba10d
DTITLE=Fast Eddy's Blue Band - Blues Hunter
DYEAR=1900
DGENRE=
TTITLE0=I'm Ready
TTITLE1=Cold Shot
TTITLE2=Five Long Years
TTITLE3=Baby What You Want Me To Do
TTITLE4=Big Boss Man
TTITLE5=Long Way To Go
TTITLE6=It's My Own Fault
TTITLE7=Tuff Enough
TTITLE8=Bring It On Home
TTITLE9=Hootchie Cootchie Man
TTITLE10=I'm In Love With You
TTITLE11=The Hunter
TTITLE12=Trouble On My Mind
EXTD=
EXTT0=
EXTT1=
EXTT2=
EXTT3=
EXTT4=
EXTT5=
EXTT6=
EXTT7=
EXTT8=
EXTT9=
EXTT10=
EXTT11=
EXTT12=
PLAYORDER=
